<svg xmlns="http://www.w3.org/2000/svg" id="Layer_1" data-name="Layer 1" viewBox="0 0 5000 4800"><defs><style>@keyframes upAndDown {0% {transform: translateX(-30px);}50% {transform: translateX(30px);}100% {transform: translateX(-30px);}}@keyframes blink{to {opacity: .0;}}.animate-x-svg{animation: upAndDown 0.6s infinite normal ease-out;}.animate-opacity-svg {opacity: 1;animation: blink 1s infinite ease;}.cls-1{fill:#ed2649;}.cls-2{fill:#f1f2f2;}.cls-3{fill:#fff;}</style></defs><title>logo.min</title><path class="cls-1" d="M3046,2801.2a115,115,0,0,0-115-115h-404.4v249.37l277.18-.73c0,120.14-8.23,276.34-144.57,315.18-150.07,42.75-319.56-12.06-420.24-129-221.27-257.11-31.34-668.62,307.32-668.62V2210.8c-352.44,0-646.49,294.18-646.49,646.71s294.06,646.71,646.49,646.71c151.66,0,305.63-43,399.24-170.1,83.52-113.39,99.71-262.6,99.71-399.29Z" transform="translate(-4.39 -4.23)"/><path class="cls-1 animate-x-svg" d="M1012.46,3524.28A115,115,0,0,1,929,3330.18l436.8-461.5L929,2407.18A115,115,0,1,1,1096,2249l511.65,540.58a115,115,0,0,1,0,158.15L1096,3488.34A114.64,114.64,0,0,1,1012.46,3524.28Z" transform="translate(-4.39 -4.23)"/><path class="cls-1 animate-opacity-svg" d="M3342.66,3788.72a100.06,100.06,0,0,1,0-200.13l908.32-.34h0a100.06,100.06,0,0,1,0,200.13l-908.32.34h0Z" transform="translate(-4.39 -4.23)"/><polygon class="cls-1" points="3996.67 3483.82 4273.58 3483.82 4273.58 2198.41 3996.67 2198.41 3996.67 2938.02 3586.4 2200.3 3586.4 2198.41 3309.49 2198.41 3309.49 3483.82 3586.4 3483.82 3586.4 2757.31 3996.67 3483.82"/><path class="cls-1" d="M4682.45,4.23H528C350.91,4.23,206,149.15,206,326.27V4482.18c0,177.13,144.87,322,321.94,322H4682.45c177.06,0,321.94-144.92,321.94-322V326.27C5004.39,149.15,4859.52,4.23,4682.45,4.23ZM1474.93,189.6c131.76,0,238.58,106.85,238.58,238.66s-106.81,238.66-238.58,238.66-238.58-106.85-238.58-238.66S1343.16,189.6,1474.93,189.6Zm-735.85,0c131.76,0,238.58,106.85,238.58,238.66S870.84,666.92,739.07,666.92,500.5,560.07,500.5,428.26,607.31,189.6,739.07,189.6ZM4722.69,4482.18a41.23,41.23,0,0,1-40.24,40.26H528a41.23,41.23,0,0,1-40.24-40.26V850.75l4235-2.3V4482.18Z" transform="translate(-4.39 -4.23)"/><path class="cls-2" d="M2844.35,2801.2a115,115,0,0,0-115-115H2325v249.37l277.18-.73c0,120.14-8.23,276.34-144.57,315.18-150.07,42.75-319.56-12.06-420.24-129-221.27-257.11-31.34-668.62,307.32-668.62V2210.8c-352.44,0-646.49,294.18-646.49,646.71s294.06,646.71,646.49,646.71c151.66,0,305.63-43,399.24-170.1,83.52-113.39,99.71-262.6,99.71-399.29Z" transform="translate(-4.39 -4.23)"/><polygon class="cls-2" points="3795.02 3483.82 4071.93 3483.82 4071.93 2198.41 3795.02 2198.41 3795.02 2938.02 3384.75 2200.3 3384.75 2198.41 3107.84 2198.41 3107.84 3483.82 3384.75 3483.82 3384.75 2757.31 3795.02 3483.82"/><path class="cls-2 animate-x-svg" d="M810.81,3524.28a115,115,0,0,1-83.47-194.09l436.8-461.5-436.8-461.5a115,115,0,1,1,167-158.15L1406,2789.61a115,115,0,0,1,0,158.15L894.32,3488.34A114.64,114.64,0,0,1,810.81,3524.28Z" transform="translate(-4.39 -4.23)"/><path class="cls-2 animate-opacity-svg" d="M3141,3788.72a100.06,100.06,0,0,1,0-200.13l908.32-.34h0a100.06,100.06,0,0,1,0,200.13l-908.32.34h0Z" transform="translate(-4.39 -4.23)"/><path class="cls-3" d="M4480.8,4.23H326.32c-177.06,0-321.94,144.92-321.94,322V4482.18c0,177.13,144.87,322,321.94,322H4480.8c177.06,0,321.94-144.92,321.94-322V326.27C4802.74,149.15,4657.86,4.23,4480.8,4.23ZM1273.27,189.6c131.76,0,238.58,106.85,238.58,238.66S1405,666.92,1273.27,666.92,1034.7,560.07,1034.7,428.26,1141.51,189.6,1273.27,189.6Zm-735.85,0C669.18,189.6,776,296.45,776,428.26S669.18,666.92,537.42,666.92,298.84,560.07,298.84,428.26,405.66,189.6,537.42,189.6ZM4521,4482.18a41.23,41.23,0,0,1-40.24,40.26H326.32a41.23,41.23,0,0,1-40.24-40.26V850.75l4235-2.3V4482.18Z" transform="translate(-4.39 -4.23)"/></svg>